<mxfile host="app.diagrams.net" modified="2022-10-14T08:16:49.767Z" agent="5.0 (Windows)" etag="jjMtvsFQCyNriZW6EFSL" version="20.4.0" type="github">
  <diagram id="eiMluWibm3l4h9YvHj2A" name="Page-1">
    <mxGraphModel dx="768" dy="682" grid="1" gridSize="10" guides="1" tooltips="1" connect="1" arrows="1" fold="1" page="1" pageScale="1" pageWidth="850" pageHeight="1100" math="0" shadow="0">
      <root>
        <mxCell id="0" />
        <mxCell id="1" parent="0" />
        <mxCell id="gUVI4xrzV5iLmG2--rUx-46" value="" style="rounded=0;whiteSpace=wrap;html=1;fontSize=9;strokeColor=none;" parent="1" vertex="1">
          <mxGeometry x="30" y="20" width="870" height="620" as="geometry" />
        </mxCell>
        <mxCell id="iejyOPDeLpldSfY0Cp5H-1" value="User" style="shape=umlActor;verticalLabelPosition=bottom;verticalAlign=top;html=1;outlineConnect=0;fillColor=#1ba1e2;fontColor=#ffffff;strokeColor=#006EAF;" parent="1" vertex="1">
          <mxGeometry x="50" y="175" width="30" height="60" as="geometry" />
        </mxCell>
        <mxCell id="iejyOPDeLpldSfY0Cp5H-2" value="" style="rounded=0;whiteSpace=wrap;html=1;fillColor=#f5f5f5;strokeColor=#666666;fontColor=#333333;" parent="1" vertex="1">
          <mxGeometry x="120" y="60" width="690" height="540" as="geometry" />
        </mxCell>
        <mxCell id="iejyOPDeLpldSfY0Cp5H-3" value="Admin" style="shape=umlActor;verticalLabelPosition=bottom;verticalAlign=top;html=1;outlineConnect=0;fillColor=#1ba1e2;strokeColor=#006EAF;fontColor=#ffffff;" parent="1" vertex="1">
          <mxGeometry x="830" y="190" width="30" height="60" as="geometry" />
        </mxCell>
        <mxCell id="iejyOPDeLpldSfY0Cp5H-6" value="Roommate Recommender System" style="text;html=1;strokeColor=none;fillColor=none;align=center;verticalAlign=middle;whiteSpace=wrap;rounded=0;fontSize=15;" parent="1" vertex="1">
          <mxGeometry x="120" y="60" width="240" height="30" as="geometry" />
        </mxCell>
        <mxCell id="iejyOPDeLpldSfY0Cp5H-7" value="Login" style="ellipse;whiteSpace=wrap;html=1;fontSize=15;fillColor=#647687;strokeColor=#314354;fontColor=#ffffff;" parent="1" vertex="1">
          <mxGeometry x="192.5" y="100" width="60" height="35" as="geometry" />
        </mxCell>
        <mxCell id="iejyOPDeLpldSfY0Cp5H-23" style="edgeStyle=orthogonalEdgeStyle;rounded=0;orthogonalLoop=1;jettySize=auto;html=1;entryX=0.5;entryY=1;entryDx=0;entryDy=0;dashed=1;startArrow=none;" parent="1" source="iejyOPDeLpldSfY0Cp5H-24" target="iejyOPDeLpldSfY0Cp5H-7" edge="1">
          <mxGeometry relative="1" as="geometry" />
        </mxCell>
        <mxCell id="iejyOPDeLpldSfY0Cp5H-8" value="Allow profile access" style="ellipse;whiteSpace=wrap;html=1;fontSize=15;fillColor=#647687;strokeColor=#314354;fontColor=#ffffff;" parent="1" vertex="1">
          <mxGeometry x="170" y="180" width="105" height="50" as="geometry" />
        </mxCell>
        <mxCell id="iejyOPDeLpldSfY0Cp5H-17" value="" style="endArrow=classic;html=1;rounded=0;entryX=0;entryY=0.5;entryDx=0;entryDy=0;exitX=1;exitY=0.3333333333333333;exitDx=0;exitDy=0;exitPerimeter=0;" parent="1" source="iejyOPDeLpldSfY0Cp5H-1" target="iejyOPDeLpldSfY0Cp5H-7" edge="1">
          <mxGeometry width="50" height="50" relative="1" as="geometry">
            <mxPoint x="110" y="170" as="sourcePoint" />
            <mxPoint x="263.1801948466052" y="175.0023304703363" as="targetPoint" />
          </mxGeometry>
        </mxCell>
        <mxCell id="iejyOPDeLpldSfY0Cp5H-18" value="" style="endArrow=classic;html=1;rounded=0;entryX=0;entryY=0.5;entryDx=0;entryDy=0;" parent="1" source="iejyOPDeLpldSfY0Cp5H-1" target="iejyOPDeLpldSfY0Cp5H-8" edge="1">
          <mxGeometry width="50" height="50" relative="1" as="geometry">
            <mxPoint x="110" y="190" as="sourcePoint" />
            <mxPoint x="210" y="160" as="targetPoint" />
          </mxGeometry>
        </mxCell>
        <mxCell id="iejyOPDeLpldSfY0Cp5H-19" value="Show personality" style="ellipse;whiteSpace=wrap;html=1;fontSize=15;fillColor=#647687;strokeColor=#314354;fontColor=#ffffff;" parent="1" vertex="1">
          <mxGeometry x="160" y="270" width="125" height="50" as="geometry" />
        </mxCell>
        <mxCell id="iejyOPDeLpldSfY0Cp5H-35" style="edgeStyle=orthogonalEdgeStyle;rounded=0;orthogonalLoop=1;jettySize=auto;html=1;exitX=0.5;exitY=1;exitDx=0;exitDy=0;entryX=0;entryY=0.5;entryDx=0;entryDy=0;dashed=1;startArrow=none;" parent="1" source="gUVI4xrzV5iLmG2--rUx-19" target="iejyOPDeLpldSfY0Cp5H-34" edge="1">
          <mxGeometry relative="1" as="geometry" />
        </mxCell>
        <mxCell id="iejyOPDeLpldSfY0Cp5H-25" value="Show recommended roommates" style="ellipse;whiteSpace=wrap;html=1;fontSize=15;fillColor=#647687;strokeColor=#314354;fontColor=#ffffff;" parent="1" vertex="1">
          <mxGeometry x="160" y="350" width="130" height="70" as="geometry" />
        </mxCell>
        <mxCell id="iejyOPDeLpldSfY0Cp5H-28" style="edgeStyle=orthogonalEdgeStyle;rounded=0;orthogonalLoop=1;jettySize=auto;html=1;entryX=1;entryY=0.5;entryDx=0;entryDy=0;dashed=1;startArrow=none;" parent="1" source="gUVI4xrzV5iLmG2--rUx-31" target="iejyOPDeLpldSfY0Cp5H-8" edge="1">
          <mxGeometry relative="1" as="geometry" />
        </mxCell>
        <mxCell id="iejyOPDeLpldSfY0Cp5H-46" style="edgeStyle=orthogonalEdgeStyle;rounded=0;orthogonalLoop=1;jettySize=auto;html=1;exitX=1;exitY=0.5;exitDx=0;exitDy=0;entryX=0.5;entryY=1;entryDx=0;entryDy=0;dashed=1;startArrow=none;" parent="1" source="gUVI4xrzV5iLmG2--rUx-3" target="iejyOPDeLpldSfY0Cp5H-27" edge="1">
          <mxGeometry relative="1" as="geometry" />
        </mxCell>
        <mxCell id="iejyOPDeLpldSfY0Cp5H-26" value="Obtain data from database" style="ellipse;whiteSpace=wrap;html=1;fontSize=15;fillColor=#647687;strokeColor=#314354;fontColor=#ffffff;" parent="1" vertex="1">
          <mxGeometry x="370" y="180" width="120" height="50" as="geometry" />
        </mxCell>
        <mxCell id="iejyOPDeLpldSfY0Cp5H-27" value="Load/update database" style="ellipse;whiteSpace=wrap;html=1;fontSize=15;fillColor=#647687;strokeColor=#314354;fontColor=#ffffff;" parent="1" vertex="1">
          <mxGeometry x="540" y="100" width="110" height="60" as="geometry" />
        </mxCell>
        <mxCell id="iejyOPDeLpldSfY0Cp5H-37" style="edgeStyle=orthogonalEdgeStyle;rounded=0;orthogonalLoop=1;jettySize=auto;html=1;exitX=0.5;exitY=0;exitDx=0;exitDy=0;entryX=1;entryY=1;entryDx=0;entryDy=0;dashed=1;" parent="1" source="iejyOPDeLpldSfY0Cp5H-29" target="iejyOPDeLpldSfY0Cp5H-26" edge="1">
          <mxGeometry relative="1" as="geometry" />
        </mxCell>
        <mxCell id="iejyOPDeLpldSfY0Cp5H-29" value="Process &amp;amp; analyze data" style="ellipse;whiteSpace=wrap;html=1;fontSize=15;fillColor=#647687;strokeColor=#314354;fontColor=#ffffff;" parent="1" vertex="1">
          <mxGeometry x="360" y="265" width="110" height="50" as="geometry" />
        </mxCell>
        <mxCell id="iejyOPDeLpldSfY0Cp5H-38" style="edgeStyle=orthogonalEdgeStyle;rounded=0;orthogonalLoop=1;jettySize=auto;html=1;entryX=0.5;entryY=1;entryDx=0;entryDy=0;dashed=1;startArrow=none;" parent="1" source="gUVI4xrzV5iLmG2--rUx-15" target="iejyOPDeLpldSfY0Cp5H-29" edge="1">
          <mxGeometry relative="1" as="geometry" />
        </mxCell>
        <mxCell id="iejyOPDeLpldSfY0Cp5H-30" value="Create model" style="ellipse;whiteSpace=wrap;html=1;fontSize=15;fillColor=#647687;strokeColor=#314354;fontColor=#ffffff;" parent="1" vertex="1">
          <mxGeometry x="360" y="350" width="110" height="50" as="geometry" />
        </mxCell>
        <mxCell id="iejyOPDeLpldSfY0Cp5H-39" style="edgeStyle=orthogonalEdgeStyle;rounded=0;orthogonalLoop=1;jettySize=auto;html=1;exitX=0.5;exitY=0;exitDx=0;exitDy=0;entryX=0.5;entryY=1;entryDx=0;entryDy=0;dashed=1;" parent="1" source="iejyOPDeLpldSfY0Cp5H-31" target="iejyOPDeLpldSfY0Cp5H-30" edge="1">
          <mxGeometry relative="1" as="geometry" />
        </mxCell>
        <mxCell id="iejyOPDeLpldSfY0Cp5H-44" style="edgeStyle=orthogonalEdgeStyle;rounded=0;orthogonalLoop=1;jettySize=auto;html=1;exitX=0.5;exitY=0;exitDx=0;exitDy=0;entryX=1;entryY=0.5;entryDx=0;entryDy=0;dashed=1;startArrow=none;" parent="1" source="gUVI4xrzV5iLmG2--rUx-29" target="iejyOPDeLpldSfY0Cp5H-19" edge="1">
          <mxGeometry relative="1" as="geometry" />
        </mxCell>
        <mxCell id="iejyOPDeLpldSfY0Cp5H-31" value="Classify personality" style="ellipse;whiteSpace=wrap;html=1;fontSize=15;fillColor=#647687;strokeColor=#314354;fontColor=#ffffff;" parent="1" vertex="1">
          <mxGeometry x="370" y="440" width="90" height="50" as="geometry" />
        </mxCell>
        <mxCell id="iejyOPDeLpldSfY0Cp5H-51" style="edgeStyle=orthogonalEdgeStyle;rounded=0;orthogonalLoop=1;jettySize=auto;html=1;exitX=1;exitY=0.5;exitDx=0;exitDy=0;entryX=0;entryY=0.5;entryDx=0;entryDy=0;dashed=1;startArrow=none;" parent="1" source="gUVI4xrzV5iLmG2--rUx-22" target="iejyOPDeLpldSfY0Cp5H-50" edge="1">
          <mxGeometry relative="1" as="geometry" />
        </mxCell>
        <mxCell id="iejyOPDeLpldSfY0Cp5H-34" value="Recommend Roommates" style="ellipse;whiteSpace=wrap;html=1;fontSize=15;fillColor=#647687;strokeColor=#314354;fontColor=#ffffff;" parent="1" vertex="1">
          <mxGeometry x="260" y="520" width="110" height="60" as="geometry" />
        </mxCell>
        <mxCell id="iejyOPDeLpldSfY0Cp5H-45" style="edgeStyle=orthogonalEdgeStyle;rounded=0;orthogonalLoop=1;jettySize=auto;html=1;exitX=0;exitY=0.5;exitDx=0;exitDy=0;entryX=1;entryY=0.5;entryDx=0;entryDy=0;dashed=1;startArrow=none;" parent="1" source="gUVI4xrzV5iLmG2--rUx-13" target="iejyOPDeLpldSfY0Cp5H-30" edge="1">
          <mxGeometry relative="1" as="geometry" />
        </mxCell>
        <mxCell id="iejyOPDeLpldSfY0Cp5H-58" style="edgeStyle=orthogonalEdgeStyle;rounded=0;orthogonalLoop=1;jettySize=auto;html=1;exitX=0.5;exitY=1;exitDx=0;exitDy=0;entryX=0.5;entryY=0;entryDx=0;entryDy=0;dashed=1;" parent="1" source="iejyOPDeLpldSfY0Cp5H-36" target="iejyOPDeLpldSfY0Cp5H-57" edge="1">
          <mxGeometry relative="1" as="geometry" />
        </mxCell>
        <mxCell id="iejyOPDeLpldSfY0Cp5H-36" value="Evaluate model" style="ellipse;whiteSpace=wrap;html=1;fontSize=15;fillColor=#647687;strokeColor=#314354;fontColor=#ffffff;" parent="1" vertex="1">
          <mxGeometry x="670" y="205" width="100" height="50" as="geometry" />
        </mxCell>
        <mxCell id="iejyOPDeLpldSfY0Cp5H-42" value="" style="endArrow=classic;html=1;rounded=0;exitX=0;exitY=0.5;exitDx=0;exitDy=0;" parent="1" source="iejyOPDeLpldSfY0Cp5H-25" target="iejyOPDeLpldSfY0Cp5H-1" edge="1">
          <mxGeometry width="50" height="50" relative="1" as="geometry">
            <mxPoint x="120" y="200" as="sourcePoint" />
            <mxPoint x="100" y="240" as="targetPoint" />
          </mxGeometry>
        </mxCell>
        <mxCell id="iejyOPDeLpldSfY0Cp5H-43" value="" style="endArrow=classic;html=1;rounded=0;exitX=0;exitY=0.5;exitDx=0;exitDy=0;" parent="1" source="iejyOPDeLpldSfY0Cp5H-19" target="iejyOPDeLpldSfY0Cp5H-1" edge="1">
          <mxGeometry width="50" height="50" relative="1" as="geometry">
            <mxPoint x="180" y="415" as="sourcePoint" />
            <mxPoint x="120" y="230" as="targetPoint" />
          </mxGeometry>
        </mxCell>
        <mxCell id="iejyOPDeLpldSfY0Cp5H-47" value="" style="endArrow=classic;html=1;rounded=0;entryX=1;entryY=0.5;entryDx=0;entryDy=0;" parent="1" source="iejyOPDeLpldSfY0Cp5H-3" target="iejyOPDeLpldSfY0Cp5H-36" edge="1">
          <mxGeometry width="50" height="50" relative="1" as="geometry">
            <mxPoint x="740" y="425" as="sourcePoint" />
            <mxPoint x="670" y="290" as="targetPoint" />
          </mxGeometry>
        </mxCell>
        <mxCell id="iejyOPDeLpldSfY0Cp5H-49" style="edgeStyle=orthogonalEdgeStyle;rounded=0;orthogonalLoop=1;jettySize=auto;html=1;dashed=1;" parent="1" source="iejyOPDeLpldSfY0Cp5H-48" target="iejyOPDeLpldSfY0Cp5H-31" edge="1">
          <mxGeometry relative="1" as="geometry" />
        </mxCell>
        <mxCell id="iejyOPDeLpldSfY0Cp5H-48" value="Add personality feature" style="ellipse;whiteSpace=wrap;html=1;fontSize=15;fillColor=#647687;strokeColor=#314354;fontColor=#ffffff;" parent="1" vertex="1">
          <mxGeometry x="520" y="439" width="110" height="50" as="geometry" />
        </mxCell>
        <mxCell id="iejyOPDeLpldSfY0Cp5H-52" style="edgeStyle=orthogonalEdgeStyle;rounded=0;orthogonalLoop=1;jettySize=auto;html=1;exitX=0.5;exitY=0;exitDx=0;exitDy=0;entryX=0.5;entryY=1;entryDx=0;entryDy=0;dashed=1;" parent="1" source="iejyOPDeLpldSfY0Cp5H-50" target="iejyOPDeLpldSfY0Cp5H-48" edge="1">
          <mxGeometry relative="1" as="geometry" />
        </mxCell>
        <mxCell id="iejyOPDeLpldSfY0Cp5H-50" value="Find similar users" style="ellipse;whiteSpace=wrap;html=1;fontSize=15;fillColor=#647687;strokeColor=#314354;fontColor=#ffffff;" parent="1" vertex="1">
          <mxGeometry x="520" y="520" width="110" height="60" as="geometry" />
        </mxCell>
        <mxCell id="iejyOPDeLpldSfY0Cp5H-56" style="edgeStyle=orthogonalEdgeStyle;rounded=0;orthogonalLoop=1;jettySize=auto;html=1;exitX=0.5;exitY=1;exitDx=0;exitDy=0;entryX=1;entryY=0.5;entryDx=0;entryDy=0;dashed=1;" parent="1" source="iejyOPDeLpldSfY0Cp5H-53" target="iejyOPDeLpldSfY0Cp5H-50" edge="1">
          <mxGeometry relative="1" as="geometry" />
        </mxCell>
        <mxCell id="iejyOPDeLpldSfY0Cp5H-59" style="edgeStyle=orthogonalEdgeStyle;rounded=0;orthogonalLoop=1;jettySize=auto;html=1;dashed=1;" parent="1" source="iejyOPDeLpldSfY0Cp5H-53" target="iejyOPDeLpldSfY0Cp5H-57" edge="1">
          <mxGeometry relative="1" as="geometry" />
        </mxCell>
        <mxCell id="iejyOPDeLpldSfY0Cp5H-53" value="Evaluate Algorithm performance" style="ellipse;whiteSpace=wrap;html=1;fontSize=15;fillColor=#647687;strokeColor=#314354;fontColor=#ffffff;" parent="1" vertex="1">
          <mxGeometry x="650" y="440" width="140" height="60" as="geometry" />
        </mxCell>
        <mxCell id="iejyOPDeLpldSfY0Cp5H-54" value="" style="endArrow=classic;html=1;rounded=0;entryX=1;entryY=0.5;entryDx=0;entryDy=0;" parent="1" source="iejyOPDeLpldSfY0Cp5H-3" target="iejyOPDeLpldSfY0Cp5H-27" edge="1">
          <mxGeometry width="50" height="50" relative="1" as="geometry">
            <mxPoint x="830" y="300" as="sourcePoint" />
            <mxPoint x="710" y="300" as="targetPoint" />
          </mxGeometry>
        </mxCell>
        <mxCell id="iejyOPDeLpldSfY0Cp5H-55" value="" style="endArrow=classic;html=1;rounded=0;entryX=1;entryY=0.5;entryDx=0;entryDy=0;" parent="1" source="iejyOPDeLpldSfY0Cp5H-3" target="iejyOPDeLpldSfY0Cp5H-53" edge="1">
          <mxGeometry width="50" height="50" relative="1" as="geometry">
            <mxPoint x="830" y="300" as="sourcePoint" />
            <mxPoint x="710" y="300" as="targetPoint" />
          </mxGeometry>
        </mxCell>
        <mxCell id="iejyOPDeLpldSfY0Cp5H-57" value="Calculate performance metrics" style="ellipse;whiteSpace=wrap;html=1;fontSize=15;fillColor=#647687;strokeColor=#314354;fontColor=#ffffff;" parent="1" vertex="1">
          <mxGeometry x="660" y="330" width="120" height="50" as="geometry" />
        </mxCell>
        <mxCell id="iejyOPDeLpldSfY0Cp5H-60" value="" style="endArrow=classic;html=1;rounded=0;exitX=1.018;exitY=0.68;exitDx=0;exitDy=0;exitPerimeter=0;" parent="1" source="iejyOPDeLpldSfY0Cp5H-57" target="iejyOPDeLpldSfY0Cp5H-3" edge="1">
          <mxGeometry width="50" height="50" relative="1" as="geometry">
            <mxPoint x="824.591836734694" y="280" as="sourcePoint" />
            <mxPoint x="750" y="495" as="targetPoint" />
          </mxGeometry>
        </mxCell>
        <mxCell id="iejyOPDeLpldSfY0Cp5H-24" value="&amp;lt;&amp;lt;include&amp;gt;&amp;gt;" style="text;html=1;strokeColor=none;fillColor=none;align=center;verticalAlign=middle;whiteSpace=wrap;rounded=0;rotation=0;" parent="1" vertex="1">
          <mxGeometry x="192.5" y="145" width="60" height="30" as="geometry" />
        </mxCell>
        <mxCell id="gUVI4xrzV5iLmG2--rUx-10" value="" style="edgeStyle=orthogonalEdgeStyle;rounded=0;orthogonalLoop=1;jettySize=auto;html=1;entryX=0.5;entryY=1;entryDx=0;entryDy=0;dashed=1;endArrow=none;" parent="1" source="iejyOPDeLpldSfY0Cp5H-8" target="iejyOPDeLpldSfY0Cp5H-24" edge="1">
          <mxGeometry relative="1" as="geometry">
            <mxPoint x="222.5" y="180" as="sourcePoint" />
            <mxPoint x="222.5" y="135" as="targetPoint" />
          </mxGeometry>
        </mxCell>
        <mxCell id="gUVI4xrzV5iLmG2--rUx-13" value="&amp;lt;&amp;lt;include&amp;gt;&amp;gt;" style="text;html=1;strokeColor=none;fillColor=none;align=center;verticalAlign=middle;whiteSpace=wrap;rounded=0;rotation=0;" parent="1" vertex="1">
          <mxGeometry x="530" y="275" width="60" height="30" as="geometry" />
        </mxCell>
        <mxCell id="gUVI4xrzV5iLmG2--rUx-14" value="" style="edgeStyle=orthogonalEdgeStyle;rounded=0;orthogonalLoop=1;jettySize=auto;html=1;exitX=0;exitY=0.5;exitDx=0;exitDy=0;entryX=1;entryY=0.5;entryDx=0;entryDy=0;dashed=1;endArrow=none;" parent="1" source="iejyOPDeLpldSfY0Cp5H-36" target="gUVI4xrzV5iLmG2--rUx-13" edge="1">
          <mxGeometry relative="1" as="geometry">
            <mxPoint x="639.9999999999995" y="240" as="sourcePoint" />
            <mxPoint x="470.0000000000002" y="364.9999999999998" as="targetPoint" />
          </mxGeometry>
        </mxCell>
        <mxCell id="gUVI4xrzV5iLmG2--rUx-15" value="&amp;lt;&amp;lt;include&amp;gt;&amp;gt;" style="text;html=1;strokeColor=none;fillColor=none;align=center;verticalAlign=middle;whiteSpace=wrap;rounded=0;rotation=0;" parent="1" vertex="1">
          <mxGeometry x="385" y="320" width="60" height="30" as="geometry" />
        </mxCell>
        <mxCell id="gUVI4xrzV5iLmG2--rUx-16" value="" style="edgeStyle=orthogonalEdgeStyle;rounded=0;orthogonalLoop=1;jettySize=auto;html=1;entryX=0.5;entryY=1;entryDx=0;entryDy=0;dashed=1;endArrow=none;" parent="1" source="iejyOPDeLpldSfY0Cp5H-30" target="gUVI4xrzV5iLmG2--rUx-15" edge="1">
          <mxGeometry relative="1" as="geometry">
            <mxPoint x="414.9999999999998" y="349.9999999999998" as="sourcePoint" />
            <mxPoint x="414.9999999999998" y="315" as="targetPoint" />
          </mxGeometry>
        </mxCell>
        <mxCell id="gUVI4xrzV5iLmG2--rUx-18" value="&amp;lt;&amp;lt;include&amp;gt;&amp;gt;" style="text;html=1;strokeColor=none;fillColor=none;align=center;verticalAlign=middle;whiteSpace=wrap;rounded=0;rotation=0;" parent="1" vertex="1">
          <mxGeometry x="385" y="409" width="60" height="30" as="geometry" />
        </mxCell>
        <mxCell id="gUVI4xrzV5iLmG2--rUx-21" value="&amp;lt;&amp;lt;include&amp;gt;&amp;gt;" style="text;html=1;strokeColor=none;fillColor=none;align=center;verticalAlign=middle;whiteSpace=wrap;rounded=0;rotation=0;fontSize=8;" parent="1" vertex="1">
          <mxGeometry x="467" y="444" width="60" height="30" as="geometry" />
        </mxCell>
        <mxCell id="gUVI4xrzV5iLmG2--rUx-22" value="&amp;lt;&amp;lt;include&amp;gt;&amp;gt;" style="text;html=1;strokeColor=none;fillColor=none;align=center;verticalAlign=middle;whiteSpace=wrap;rounded=0;rotation=0;" parent="1" vertex="1">
          <mxGeometry x="420" y="535" width="60" height="30" as="geometry" />
        </mxCell>
        <mxCell id="gUVI4xrzV5iLmG2--rUx-23" value="" style="edgeStyle=orthogonalEdgeStyle;rounded=0;orthogonalLoop=1;jettySize=auto;html=1;exitX=1;exitY=0.5;exitDx=0;exitDy=0;entryX=0;entryY=0.5;entryDx=0;entryDy=0;dashed=1;endArrow=none;" parent="1" source="iejyOPDeLpldSfY0Cp5H-34" target="gUVI4xrzV5iLmG2--rUx-22" edge="1">
          <mxGeometry relative="1" as="geometry">
            <mxPoint x="370.0000000000002" y="550" as="sourcePoint" />
            <mxPoint x="519.9999999999998" y="550" as="targetPoint" />
          </mxGeometry>
        </mxCell>
        <mxCell id="gUVI4xrzV5iLmG2--rUx-24" value="&amp;lt;&amp;lt;include&amp;gt;&amp;gt;" style="text;html=1;strokeColor=none;fillColor=none;align=center;verticalAlign=middle;whiteSpace=wrap;rounded=0;rotation=0;fontSize=10;" parent="1" vertex="1">
          <mxGeometry x="652" y="528" width="60" height="30" as="geometry" />
        </mxCell>
        <mxCell id="gUVI4xrzV5iLmG2--rUx-27" value="&amp;lt;&amp;lt;extend&amp;gt;&amp;gt;" style="text;html=1;strokeColor=none;fillColor=none;align=center;verticalAlign=middle;whiteSpace=wrap;rounded=0;rotation=0;" parent="1" vertex="1">
          <mxGeometry x="690" y="275" width="60" height="30" as="geometry" />
        </mxCell>
        <mxCell id="gUVI4xrzV5iLmG2--rUx-28" value="&amp;lt;&amp;lt;extend&amp;gt;&amp;gt;" style="text;html=1;strokeColor=none;fillColor=none;align=center;verticalAlign=middle;whiteSpace=wrap;rounded=0;rotation=0;" parent="1" vertex="1">
          <mxGeometry x="690" y="400" width="60" height="30" as="geometry" />
        </mxCell>
        <mxCell id="gUVI4xrzV5iLmG2--rUx-31" value="&amp;lt;&amp;lt;include&amp;gt;&amp;gt;" style="text;html=1;strokeColor=none;fillColor=none;align=center;verticalAlign=middle;whiteSpace=wrap;rounded=0;rotation=0;" parent="1" vertex="1">
          <mxGeometry x="300" y="190" width="60" height="30" as="geometry" />
        </mxCell>
        <mxCell id="gUVI4xrzV5iLmG2--rUx-32" value="" style="edgeStyle=orthogonalEdgeStyle;rounded=0;orthogonalLoop=1;jettySize=auto;html=1;entryX=1;entryY=0.5;entryDx=0;entryDy=0;dashed=1;endArrow=none;" parent="1" source="iejyOPDeLpldSfY0Cp5H-26" target="gUVI4xrzV5iLmG2--rUx-31" edge="1">
          <mxGeometry relative="1" as="geometry">
            <mxPoint x="369.9999999999998" y="205" as="sourcePoint" />
            <mxPoint x="275" y="205" as="targetPoint" />
          </mxGeometry>
        </mxCell>
        <mxCell id="gUVI4xrzV5iLmG2--rUx-3" value="&amp;lt;&amp;lt;include&amp;gt;&amp;gt;" style="text;html=1;strokeColor=none;fillColor=none;align=center;verticalAlign=middle;whiteSpace=wrap;rounded=0;rotation=0;" parent="1" vertex="1">
          <mxGeometry x="520" y="190" width="60" height="30" as="geometry" />
        </mxCell>
        <mxCell id="gUVI4xrzV5iLmG2--rUx-35" value="" style="edgeStyle=orthogonalEdgeStyle;rounded=0;orthogonalLoop=1;jettySize=auto;html=1;exitX=1;exitY=0.5;exitDx=0;exitDy=0;entryX=0;entryY=0.5;entryDx=0;entryDy=0;dashed=1;endArrow=none;" parent="1" source="iejyOPDeLpldSfY0Cp5H-26" target="gUVI4xrzV5iLmG2--rUx-3" edge="1">
          <mxGeometry relative="1" as="geometry">
            <mxPoint x="490.0000000000002" y="205" as="sourcePoint" />
            <mxPoint x="594.9999999999998" y="160" as="targetPoint" />
          </mxGeometry>
        </mxCell>
        <mxCell id="gUVI4xrzV5iLmG2--rUx-19" value="&amp;lt;&amp;lt;include&amp;gt;&amp;gt;" style="text;html=1;strokeColor=none;fillColor=none;align=center;verticalAlign=middle;whiteSpace=wrap;rounded=0;rotation=0;" parent="1" vertex="1">
          <mxGeometry x="195" y="469" width="60" height="30" as="geometry" />
        </mxCell>
        <mxCell id="gUVI4xrzV5iLmG2--rUx-39" value="" style="edgeStyle=orthogonalEdgeStyle;rounded=0;orthogonalLoop=1;jettySize=auto;html=1;exitX=0.5;exitY=1;exitDx=0;exitDy=0;entryX=0.5;entryY=0;entryDx=0;entryDy=0;dashed=1;endArrow=none;" parent="1" source="iejyOPDeLpldSfY0Cp5H-25" target="gUVI4xrzV5iLmG2--rUx-19" edge="1">
          <mxGeometry relative="1" as="geometry">
            <mxPoint x="225" y="419.9999999999999" as="sourcePoint" />
            <mxPoint x="260" y="550" as="targetPoint" />
          </mxGeometry>
        </mxCell>
        <mxCell id="gUVI4xrzV5iLmG2--rUx-29" value="&amp;lt;&amp;lt;extend&amp;gt;&amp;gt;" style="text;html=1;strokeColor=none;fillColor=none;align=center;verticalAlign=middle;whiteSpace=wrap;rounded=0;rotation=0;" parent="1" vertex="1">
          <mxGeometry x="300" y="350" width="60" height="30" as="geometry" />
        </mxCell>
        <mxCell id="gUVI4xrzV5iLmG2--rUx-41" value="" style="edgeStyle=orthogonalEdgeStyle;rounded=0;orthogonalLoop=1;jettySize=auto;html=1;exitX=0;exitY=0.5;exitDx=0;exitDy=0;entryX=0.5;entryY=1;entryDx=0;entryDy=0;dashed=1;endArrow=none;" parent="1" source="iejyOPDeLpldSfY0Cp5H-31" target="gUVI4xrzV5iLmG2--rUx-29" edge="1">
          <mxGeometry relative="1" as="geometry">
            <mxPoint x="370" y="465" as="sourcePoint" />
            <mxPoint x="285" y="294.9999999999999" as="targetPoint" />
          </mxGeometry>
        </mxCell>
        <mxCell id="gUVI4xrzV5iLmG2--rUx-44" value="&amp;lt;&amp;lt;include&amp;gt;&amp;gt;" style="text;html=1;strokeColor=none;fillColor=none;align=center;verticalAlign=middle;whiteSpace=wrap;rounded=0;rotation=0;fontSize=9;" parent="1" vertex="1">
          <mxGeometry x="420" y="235" width="60" height="30" as="geometry" />
        </mxCell>
        <mxCell id="7t0_xdYEpVntagV3UkMw-1" value="Admin" style="text;html=1;strokeColor=none;fillColor=none;align=center;verticalAlign=middle;whiteSpace=wrap;rounded=0;fontColor=#000000;" vertex="1" parent="1">
          <mxGeometry x="815" y="255" width="60" height="30" as="geometry" />
        </mxCell>
        <mxCell id="7t0_xdYEpVntagV3UkMw-2" value="User" style="text;html=1;strokeColor=none;fillColor=none;align=center;verticalAlign=middle;whiteSpace=wrap;rounded=0;fontColor=#000000;" vertex="1" parent="1">
          <mxGeometry x="35" y="235" width="60" height="30" as="geometry" />
        </mxCell>
      </root>
    </mxGraphModel>
  </diagram>
</mxfile>
